<?xml version="1.0" encoding="UTF-8" standalone="no"?>
<!DOCTYPE svg PUBLIC "-//W3C//DTD SVG 20010904//EN"
              "http://www.w3.org/TR/2001/REC-SVG-20010904/DTD/svg10.dtd">

<svg xmlns="http://www.w3.org/2000/svg"
     width="221.909mm" height="183.454mm"
     viewBox="0 0 1258 1040">
  <path id="Selection"
        fill="#4682b4" stroke="white" stroke-width="1"
        d="M 676.35,59.06
           C 672.76,62.51 666.47,76.72 663.74,82.00
             663.74,82.00 639.57,127.00 639.57,127.00
             614.64,170.55 580.50,223.74 544.88,258.74
             544.88,258.74 537.00,266.91 537.00,266.91
             537.00,266.91 529.00,273.32 529.00,273.32
             513.79,285.99 493.77,300.75 473.00,301.00
             444.77,301.33 422.38,280.32 412.46,255.00
             410.66,250.41 408.99,242.94 407.88,238.00
             407.88,238.00 399.25,178.00 399.25,178.00
             397.16,170.09 394.50,161.25 390.74,154.00
             376.30,126.21 345.46,101.38 313.00,101.00
             285.17,100.68 261.80,108.42 240.28,126.49
             240.28,126.49 231.32,133.53 231.32,133.53
             220.60,143.07 209.99,156.53 202.87,169.00
             195.24,182.36 190.91,194.84 188.58,210.00
             182.42,250.03 207.04,286.44 240.00,306.94
             251.35,313.99 266.22,320.02 279.00,323.98
             295.23,329.00 325.35,334.22 339.00,343.25
             343.77,346.40 347.65,350.59 351.23,355.00
             354.04,358.46 357.00,362.85 358.68,367.00
             361.00,372.75 362.38,380.81 362.82,387.00
             363.21,392.49 360.83,400.76 359.07,406.00
             354.17,420.60 348.97,429.61 340.13,442.17
             312.66,481.14 263.71,518.53 225.00,546.59
             225.00,546.59 210.00,556.51 210.00,556.51
             210.00,556.51 176.00,578.14 176.00,578.14
             172.67,580.08 160.73,585.80 161.73,590.09
             162.23,592.25 165.89,596.22 167.42,598.00
             167.42,598.00 185.01,617.00 185.01,617.00
             185.01,617.00 219.17,654.00 219.17,654.00
             219.17,654.00 240.49,676.72 240.49,676.72
             240.49,676.72 376.91,824.00 376.91,824.00
             376.91,824.00 427.83,879.00 427.83,879.00
             427.83,879.00 462.00,916.00 462.00,916.00
             462.00,916.00 494.17,951.00 494.17,951.00
             494.17,951.00 526.83,986.00 526.83,986.00
             526.83,986.00 542.42,1003.00 542.42,1003.00
             544.72,1005.59 547.13,1008.75 551.00,1008.09
             554.62,1007.48 565.23,1000.08 569.00,997.80
             569.00,997.80 611.00,970.25 611.00,970.25
             640.80,949.44 669.75,927.15 696.00,902.04
             712.06,886.67 727.76,869.97 739.58,851.00
             754.32,827.32 763.51,804.02 751.34,777.00
             748.96,771.73 746.47,768.60 742.86,764.17
             727.41,745.23 689.76,745.69 667.00,741.58
             652.13,738.89 634.01,733.58 621.00,725.91
             608.89,718.77 600.30,711.04 591.64,700.00
             577.05,681.39 570.73,665.81 571.00,642.00
             571.17,627.88 577.00,612.26 583.70,600.00
             603.88,563.03 641.50,535.20 684.00,532.18
             692.87,531.55 705.69,534.84 714.00,537.95
             725.00,542.07 727.65,544.02 737.00,551.13
             759.99,568.62 770.77,592.25 775.54,620.00
             778.74,638.60 778.51,657.70 783.71,676.00
             793.16,709.25 819.47,736.51 856.28,728.37
             877.14,723.75 897.83,708.47 914.00,695.17
             914.00,695.17 922.00,688.90 922.00,688.90
             922.00,688.90 932.32,677.92 932.32,677.92
             932.32,677.92 957.83,652.96 957.83,652.96
             957.83,652.96 1012.22,590.58 1012.22,590.58
             1012.22,590.58 1048.58,549.01 1048.58,549.01
             1052.00,545.16 1060.97,538.25 1062.16,534.02
             1063.49,529.25 1056.27,525.91 1053.00,523.58
             1053.00,523.58 1021.00,500.58 1021.00,500.58
             997.25,482.05 977.08,464.17 958.84,440.00
             949.67,427.86 939.19,409.60 939.00,394.00
             939.00,394.00 939.00,389.00 939.00,389.00
             939.12,363.71 962.32,344.72 984.00,336.20
             1003.90,328.38 1034.82,327.86 1057.00,323.69
             1075.65,320.19 1100.04,307.15 1112.40,292.85
             1121.02,282.88 1129.38,270.61 1133.48,258.00
             1134.79,253.96 1135.39,249.22 1136.08,245.00
             1136.08,245.00 1137.73,230.72 1137.73,230.72
             1137.80,182.76 1095.80,133.71 1052.00,118.09
             1035.07,112.05 1028.56,111.80 1011.00,112.00
             968.94,112.50 934.99,150.88 920.01,187.00
             913.92,201.67 910.78,217.72 906.58,233.00
             901.85,250.18 897.58,265.58 882.00,276.19
             876.02,280.25 869.35,282.82 862.00,282.82
             858.14,282.82 851.68,281.29 848.00,279.98
             827.70,272.82 805.70,251.96 791.72,236.00
             764.62,205.08 733.07,157.20 713.01,121.00
             713.01,121.00 687.24,73.00 687.24,73.00
             686.03,70.60 681.05,60.06 679.38,59.06
             677.75,58.06 676.57,59.02 676.35,59.06 Z" />
</svg>
