<?xml version="1.0" encoding="UTF-8" standalone="no"?>
<!DOCTYPE svg PUBLIC "-//W3C//DTD SVG 20010904//EN"
              "http://www.w3.org/TR/2001/REC-SVG-20010904/DTD/svg10.dtd">

<svg xmlns="http://www.w3.org/2000/svg"
     width="220.85mm" height="183.101mm"
     viewBox="0 0 1252 1038">
  <path id="Selection"
        fill="#4682b4" stroke="white" stroke-width="1"
        d="M 439.00,303.00
           C 439.00,303.00 622.00,303.00 622.00,303.00
             622.00,303.00 622.00,327.00 622.00,327.00
             622.00,327.00 411.00,327.00 411.00,327.00
             366.92,327.00 326.01,324.59 291.00,357.09
             267.35,379.05 259.26,405.72 252.58,436.00
             239.63,494.60 241.21,536.70 253.79,595.00
             260.51,626.17 272.10,659.13 298.00,679.55
             322.06,698.52 345.24,698.00 374.00,698.00
             374.00,698.00 415.00,698.00 415.00,698.00
             415.00,698.00 415.00,619.00 415.00,619.00
             415.08,570.72 443.85,527.01 489.00,509.00
             500.36,504.47 513.73,501.02 526.00,501.00
             526.00,501.00 710.00,501.00 710.00,501.00
             725.61,500.98 742.25,497.19 756.00,489.69
             783.66,474.59 802.95,443.69 803.00,412.00
             803.00,412.00 803.00,231.00 803.00,231.00
             802.94,189.71 770.80,158.43 734.00,145.05
             714.29,137.89 684.17,135.37 663.00,133.91
             663.00,133.91 635.00,132.00 635.00,132.00
             635.00,132.00 612.00,132.00 612.00,132.00
             612.00,132.00 597.00,133.00 597.00,133.00
             577.22,133.03 557.53,135.27 538.00,138.41
             513.80,142.30 486.15,147.77 466.00,162.49
             438.66,182.46 439.00,214.59 439.00,245.00
             439.00,245.00 439.00,303.00 439.00,303.00 Z
           M 517.00,187.37
           C 522.48,187.42 529.09,188.49 534.00,190.99
             555.24,201.83 559.58,231.23 542.91,247.91
             536.61,254.21 527.78,257.18 519.00,257.63
             494.20,258.90 477.52,232.41 485.81,210.00
             491.06,195.81 502.65,189.07 517.00,187.37 Z
           M 836.00,327.00
           C 836.00,327.00 836.00,383.00 836.00,383.00
             836.00,410.73 836.33,432.17 823.74,458.00
             815.93,474.03 807.58,482.72 795.00,494.99
             786.66,503.12 776.50,509.26 766.00,514.22
             753.89,519.94 739.44,523.98 726.00,524.00
             726.00,524.00 545.00,524.00 545.00,524.00
             545.00,524.00 535.00,524.83 535.00,524.83
             521.81,526.09 516.76,526.24 504.00,531.45
             477.12,542.42 455.65,568.67 449.51,597.00
             448.41,602.06 447.01,618.66 447.00,624.00
             447.00,624.00 447.00,784.00 447.00,784.00
             447.01,793.54 448.48,806.98 451.52,816.00
             467.88,864.65 530.26,884.29 576.00,892.25
             576.00,892.25 606.00,896.09 606.00,896.09
             606.00,896.09 616.00,897.00 616.00,897.00
             616.00,897.00 643.00,897.00 643.00,897.00
             672.84,896.95 721.55,885.12 749.00,873.28
             774.07,862.47 796.04,846.01 806.55,820.00
             812.30,805.75 812.00,790.08 812.00,775.00
             812.00,775.00 812.00,722.00 812.00,722.00
             812.00,722.00 629.00,722.00 629.00,722.00
             629.00,722.00 629.00,698.00 629.00,698.00
             629.00,698.00 901.00,698.00 901.00,698.00
             909.55,697.99 921.86,696.55 930.00,693.97
             966.78,682.32 981.84,643.48 993.00,610.00
             1002.43,581.72 1006.06,563.67 1008.09,534.00
             1008.09,534.00 1008.99,522.00 1008.99,522.00
             1008.99,522.00 1008.04,513.00 1008.04,513.00
             1008.04,513.00 1008.04,501.00 1008.04,501.00
             1007.84,487.75 1004.80,470.19 1002.42,457.00
             994.91,415.32 982.39,354.92 940.00,335.31
             922.76,327.33 903.67,327.00 885.00,327.00
             885.00,327.00 836.00,327.00 836.00,327.00 Z
           M 731.00,767.37
           C 736.48,767.42 743.09,768.49 748.00,770.99
             769.25,781.83 773.58,811.07 756.83,827.83
             750.32,834.34 742.07,837.32 733.00,837.79
             708.32,839.08 691.59,812.24 699.81,790.00
             705.12,775.62 716.45,769.09 731.00,767.37 Z" />
</svg>
