<?xml version="1.0" encoding="UTF-8" standalone="no"?>
<!DOCTYPE svg PUBLIC "-//W3C//DTD SVG 20010904//EN"
              "http://www.w3.org/TR/2001/REC-SVG-20010904/DTD/svg10.dtd">

<svg xmlns="http://www.w3.org/2000/svg"
     width="256.13mm" height="228.965mm"
     viewBox="0 0 1452 1298">
  <path id="Selection"
        fill="#4682b4" stroke="white" stroke-width="1"
        d="M 716.00,39.21
           C 701.22,41.53 690.03,43.53 676.00,49.31
             663.19,54.59 637.80,70.12 625.00,77.80
             625.00,77.80 556.00,118.78 556.00,118.78
             556.00,118.78 368.00,230.19 368.00,230.19
             368.00,230.19 312.00,263.35 312.00,263.35
             296.52,272.17 270.44,286.99 257.00,297.42
             221.52,324.97 200.07,370.22 200.00,415.00
             200.00,415.00 200.00,874.00 200.00,874.00
             200.07,916.31 219.16,958.80 251.00,986.71
             268.36,1001.94 313.06,1026.40 335.00,1039.40
             335.00,1039.40 439.00,1101.01 439.00,1101.01
             439.00,1101.01 492.00,1132.31 492.00,1132.31
             492.00,1132.31 536.00,1158.60 536.00,1158.60
             536.00,1158.60 632.00,1215.22 632.00,1215.22
             632.00,1215.22 664.00,1234.06 664.00,1234.06
             679.39,1242.10 703.59,1249.79 721.00,1250.00
             734.07,1250.15 747.14,1250.38 760.00,1247.64
             787.06,1241.89 805.87,1229.95 829.00,1215.81
             829.00,1215.81 853.00,1201.60 853.00,1201.60
             853.00,1201.60 951.00,1143.80 951.00,1143.80
             951.00,1143.80 1146.00,1028.20 1146.00,1028.20
             1160.72,1019.27 1192.08,1002.04 1204.00,992.55
             1239.20,964.55 1261.93,921.36 1262.00,876.00
             1262.00,876.00 1262.00,413.00 1262.00,413.00
             1261.93,370.80 1241.68,328.83 1210.00,301.29
             1200.14,292.71 1189.05,286.68 1178.00,279.94
             1178.00,279.94 1124.00,247.86 1124.00,247.86
             1124.00,247.86 980.00,162.57 980.00,162.57
             980.00,162.57 937.00,136.82 937.00,136.82
             937.00,136.82 841.00,80.19 841.00,80.19
             824.34,70.40 804.47,57.37 787.00,49.87
             763.90,39.96 747.55,38.89 723.00,39.21
             723.00,39.21 716.00,39.21 716.00,39.21 Z
           M 1233.00,396.00
           C 1230.12,390.62 1227.49,386.29 1222.91,382.14
             1205.85,366.70 1182.58,370.65 1164.00,380.86
             1164.00,380.86 1140.00,395.58 1140.00,395.58
             1140.00,395.58 1106.00,416.58 1106.00,416.58
             1106.00,416.58 1028.00,464.42 1028.00,464.42
             1028.00,464.42 993.00,486.14 993.00,486.14
             993.00,486.14 918.00,532.58 918.00,532.58
             918.00,532.58 813.00,597.19 813.00,597.19
             772.97,621.71 733.69,642.41 721.75,692.00
             720.61,696.75 719.01,713.87 719.00,719.00
             719.00,719.00 719.00,999.00 719.00,999.00
             719.00,999.00 719.00,1161.00 719.00,1161.00
             719.04,1184.66 726.45,1212.14 751.00,1221.00
             750.57,1222.24 750.62,1223.04 749.41,1223.98
             746.53,1226.20 731.18,1226.02 727.00,1226.00
             710.92,1225.92 691.38,1220.80 677.00,1213.63
             677.00,1213.63 654.00,1200.22 654.00,1200.22
             654.00,1200.22 604.00,1170.80 604.00,1170.80
             604.00,1170.80 404.00,1052.55 404.00,1052.55
             404.00,1052.55 326.00,1006.28 326.00,1006.28
             326.00,1006.28 302.00,991.82 302.00,991.82
             288.69,983.85 278.87,978.98 266.83,968.48
             243.81,948.41 230.69,922.81 225.72,893.00
             224.49,885.66 224.01,887.39 224.00,879.00
             224.00,879.00 224.00,410.00 224.00,410.00
             224.01,401.84 224.62,401.62 225.92,394.00
             231.12,363.39 247.00,336.37 271.17,316.85
             283.84,306.62 303.54,296.32 318.00,287.60
             318.00,287.60 417.00,229.19 417.00,229.19
             417.00,229.19 465.00,200.40 465.00,200.40
             465.00,200.40 592.00,125.40 592.00,125.40
             592.00,125.40 652.00,89.80 652.00,89.80
             672.31,77.62 686.11,68.91 710.00,64.75
             715.47,63.80 717.19,63.07 723.00,63.00
             742.62,62.77 753.06,63.32 772.00,69.86
             790.18,76.14 823.74,98.05 842.00,108.77
             842.00,108.77 945.00,169.60 945.00,169.60
             945.00,169.60 1002.01,203.48 1002.01,203.48
             1002.01,203.48 1043.00,227.87 1043.00,227.87
             1043.00,227.87 1122.00,274.58 1122.00,274.58
             1122.00,274.58 1156.00,294.86 1156.00,294.86
             1172.38,304.42 1186.15,311.47 1200.00,325.01
             1214.28,338.97 1225.72,356.85 1231.59,376.00
             1233.44,382.05 1238.04,390.72 1233.00,396.00 Z
           M 892.00,741.00
           C 901.06,738.62 920.24,732.47 928.77,738.14
             932.21,740.42 932.21,744.35 931.49,748.00
             931.49,748.00 926.81,766.00 926.81,766.00
             925.77,770.69 924.57,778.00 921.35,781.66
             915.86,787.91 911.13,782.29 898.00,784.61
             878.23,788.11 855.57,804.22 855.01,826.00
             854.61,842.01 861.80,844.43 876.00,846.28
             890.16,848.13 900.73,846.05 915.00,851.92
             932.59,859.17 939.97,876.98 940.00,895.00
             940.00,895.00 940.00,909.00 940.00,909.00
             939.92,915.17 939.30,915.40 938.26,921.00
             934.78,939.64 927.65,956.55 916.57,972.00
             913.26,976.63 906.57,984.52 902.57,988.58
             898.74,992.45 894.32,995.17 893.99,1001.00
             893.99,1001.00 893.99,1007.00 893.99,1007.00
             893.99,1007.00 893.99,1024.00 893.99,1024.00
             893.98,1038.52 887.53,1040.26 876.00,1046.99
             872.68,1048.93 866.21,1053.27 862.58,1050.13
             860.56,1048.38 860.27,1043.41 860.06,1040.83
             860.06,1040.83 860.06,1016.00 860.06,1016.00
             843.80,1020.26 846.60,1021.03 829.00,1021.00
             824.26,1020.99 817.93,1021.15 815.10,1016.78
             812.07,1012.82 814.36,1007.27 815.10,1003.00
             816.80,996.70 820.08,978.09 824.22,974.31
             826.57,972.18 828.97,971.93 832.00,972.17
             836.98,972.58 840.61,974.34 846.00,973.82
             873.26,971.23 898.21,951.59 899.26,923.00
             899.34,920.63 899.19,917.29 898.62,915.00
             896.76,907.51 890.04,903.18 883.00,901.29
             883.00,901.29 845.00,897.49 845.00,897.49
             821.38,891.58 815.34,874.00 814.09,852.00
             813.88,848.17 814.48,846.53 814.83,843.00
             816.93,822.04 823.34,803.43 835.43,786.00
             839.92,779.54 844.72,773.85 850.28,768.28
             852.59,765.98 857.40,762.24 858.80,759.42
             859.32,757.77 859.00,753.02 858.80,751.00
             858.99,743.13 857.52,726.28 861.82,720.09
             864.33,716.47 871.13,712.71 875.00,710.17
             877.35,708.62 882.39,705.27 885.00,704.70
             891.98,703.20 891.99,710.33 892.00,715.00
             892.00,715.00 892.00,741.00 892.00,741.00 Z
           M 1088.98,915.45
           C 1090.62,915.47 1091.74,915.09 1092.98,916.60
             1094.98,919.02 1094.01,934.04 1094.00,938.00
             1094.00,940.77 1094.22,944.36 1092.83,946.82
             1090.81,950.37 1078.12,957.41 1074.00,959.94
             1074.00,959.94 1017.00,994.31 1017.00,994.31
             1012.97,996.72 996.17,1007.73 993.02,1008.21
             987.45,1009.06 988.01,1002.60 988.00,999.00
             988.00,999.00 988.00,984.00 988.00,984.00
             988.01,981.46 987.81,978.33 989.02,976.04
             991.13,972.07 1005.44,964.33 1010.00,961.72
             1010.00,961.72 1061.00,931.27 1061.00,931.27
             1067.07,927.63 1083.41,917.07 1088.98,915.45 Z" />
</svg>
