<?xml version="1.0" encoding="UTF-8" standalone="no"?>
<!DOCTYPE svg PUBLIC "-//W3C//DTD SVG 20010904//EN"
              "http://www.w3.org/TR/2001/REC-SVG-20010904/DTD/svg10.dtd">

<svg xmlns="http://www.w3.org/2000/svg"
     width="301.993mm" height="314.341mm"
     viewBox="0 0 1712 1782">
  <path id="Selection"
        fill='#4682b4' stroke="white" stroke-width="1"
        d="M 797.00,73.71
           C 790.20,75.65 790.63,74.46 786.00,75.45
             778.97,76.96 771.72,79.12 765.00,81.71
             744.61,89.58 709.23,110.82 688.96,122.42
             688.96,122.42 676.20,129.21 676.20,129.21
             676.20,129.21 592.97,176.42 592.97,176.42
             592.97,176.42 580.20,183.22 580.20,183.22
             580.20,183.22 528.96,212.42 528.96,212.42
             528.96,212.42 516.20,219.21 516.20,219.21
             516.20,219.21 370.20,301.22 370.20,301.22
             370.20,301.22 286.96,348.42 286.96,348.42
             286.96,348.42 256.20,365.21 256.20,365.21
             256.20,365.21 220.00,386.00 220.00,386.00
             220.00,386.00 172.96,412.42 172.96,412.42
             172.96,412.42 115.51,445.54 115.51,445.54
             88.55,465.42 68.42,494.57 59.71,527.00
             59.71,527.00 58.55,534.00 58.55,534.00
             57.23,539.98 55.01,551.14 55.00,557.00
             55.00,557.00 55.00,1257.00 55.00,1257.00
             55.02,1266.63 56.21,1264.08 57.06,1270.00
             57.06,1270.00 57.06,1277.00 57.06,1277.00
             62.27,1307.65 80.46,1340.89 104.04,1361.28
             104.04,1361.28 110.49,1366.01 110.49,1366.01
             110.49,1366.01 115.51,1370.46 115.51,1370.46
             115.51,1370.46 172.97,1403.58 172.97,1403.58
             172.97,1403.58 324.20,1488.79 324.20,1488.79
             324.20,1488.79 336.96,1495.58 336.96,1495.58
             336.96,1495.58 420.20,1542.78 420.20,1542.78
             420.20,1542.78 432.97,1549.58 432.97,1549.58
             432.97,1549.58 513.99,1595.04 513.99,1595.04
             513.99,1595.04 534.20,1606.79 534.20,1606.79
             534.20,1606.79 598.20,1642.79 598.20,1642.79
             598.20,1642.79 662.20,1678.79 662.20,1678.79
             662.20,1678.79 692.96,1695.58 692.96,1695.58
             692.96,1695.58 724.96,1713.58 724.96,1713.58
             747.74,1726.62 756.47,1733.07 783.00,1739.20
             787.94,1740.35 798.33,1742.92 803.00,1743.00
             803.00,1743.00 832.00,1743.00 832.00,1743.00
             832.00,1743.00 857.72,1738.57 857.72,1738.57
             882.48,1732.43 919.91,1708.82 943.04,1695.58
             943.04,1695.58 973.80,1678.79 973.80,1678.79
             973.80,1678.79 1025.04,1649.58 1025.04,1649.58
             1025.04,1649.58 1082.83,1617.51 1082.83,1617.51
             1082.83,1617.51 1299.04,1495.58 1299.04,1495.58
             1299.04,1495.58 1329.80,1478.78 1329.80,1478.78
             1329.80,1478.78 1382.01,1449.04 1382.01,1449.04
             1382.01,1449.04 1430.09,1422.14 1430.09,1422.14
             1430.09,1422.14 1457.80,1406.79 1457.80,1406.79
             1457.80,1406.79 1495.04,1385.58 1495.04,1385.58
             1507.86,1378.24 1520.72,1371.00 1531.96,1361.28
             1551.91,1344.03 1566.06,1319.77 1574.34,1295.00
             1576.79,1287.67 1580.99,1266.42 1581.00,1259.00
             1581.00,1259.00 1581.00,559.00 1581.00,559.00
             1580.98,549.37 1579.79,551.92 1579.00,546.00
             1579.00,546.00 1579.00,540.00 1579.00,540.00
             1579.00,540.00 1576.55,528.00 1576.55,528.00
             1570.82,502.68 1551.55,471.66 1531.96,454.72
             1514.04,439.23 1485.28,424.60 1464.01,412.96
             1464.01,412.96 1425.80,391.21 1425.80,391.21
             1425.80,391.21 1381.04,366.42 1381.04,366.42
             1381.04,366.42 1315.80,329.22 1315.80,329.22
             1315.80,329.22 1233.80,283.21 1233.80,283.21
             1233.80,283.21 1203.04,266.42 1203.04,266.42
             1203.04,266.42 991.80,147.21 991.80,147.21
             991.80,147.21 947.03,122.42 947.03,122.42
             947.03,122.42 915.03,104.42 915.03,104.42
             893.26,91.85 875.17,80.85 850.00,75.45
             850.00,75.45 843.00,74.74 843.00,74.74
             838.40,73.98 839.49,73.11 833.00,73.00
             825.56,72.88 803.01,72.42 797.00,73.71 Z
           M 799.00,469.38
           C 799.00,469.38 832.00,469.38 832.00,469.38
             837.47,469.64 837.60,470.89 844.00,471.00
             844.00,471.00 856.00,471.00 856.00,471.00
             865.63,471.02 863.10,472.21 869.00,473.06
             869.00,473.06 878.00,473.06 878.00,473.06
             878.00,473.06 896.00,476.74 896.00,476.74
             896.00,476.74 903.00,477.45 903.00,477.45
             903.00,477.45 915.00,480.55 915.00,480.55
             915.00,480.55 921.00,481.45 921.00,481.45
             921.00,481.45 938.00,486.29 938.00,486.29
             995.76,502.64 1044.76,527.97 1091.92,565.08
             1091.92,565.08 1098.76,571.26 1098.76,571.26
             1098.76,571.26 1105.68,576.54 1105.68,576.54
             1105.68,576.54 1129.87,599.05 1129.87,599.05
             1129.87,599.05 1136.01,606.65 1136.01,606.65
             1136.01,606.65 1152.13,624.48 1152.13,624.48
             1152.13,624.48 1162.74,637.26 1162.74,637.26
             1164.25,639.16 1166.51,641.17 1165.87,643.89
             1165.27,646.43 1159.23,649.69 1156.97,650.97
             1156.97,650.97 1131.03,666.00 1131.03,666.00
             1131.03,666.00 1036.61,720.41 1036.61,720.41
             1036.61,720.41 1014.29,733.49 1014.29,733.49
             1011.51,735.01 1007.55,737.55 1004.31,736.50
             1002.05,735.77 999.57,732.67 997.91,730.96
             997.91,730.96 985.33,718.67 985.33,718.67
             979.08,712.63 958.61,697.64 950.83,693.03
             929.73,680.53 906.88,669.54 883.00,663.44
             883.00,663.44 869.00,660.55 869.00,660.55
             869.00,660.55 854.00,657.26 854.00,657.26
             854.00,657.26 846.00,656.74 846.00,656.74
             839.71,655.71 842.66,655.02 834.00,655.00
             834.00,655.00 800.00,655.00 800.00,655.00
             793.33,655.11 793.77,656.34 789.00,657.06
             789.00,657.06 782.00,657.06 782.00,657.06
             782.00,657.06 776.00,658.74 776.00,658.74
             776.00,658.74 770.00,659.26 770.00,659.26
             759.55,660.99 741.97,666.45 732.00,670.29
             732.00,670.29 722.28,673.69 722.28,673.69
             722.28,673.69 690.20,689.72 690.20,689.72
             643.10,717.54 604.61,761.71 583.69,812.29
             583.69,812.29 578.67,827.00 578.67,827.00
             578.67,827.00 575.45,835.17 575.45,835.17
             575.45,835.17 569.26,860.00 569.26,860.00
             569.26,860.00 568.74,866.00 568.74,866.00
             568.74,866.00 567.06,872.00 567.06,872.00
             567.06,872.00 567.06,879.00 567.06,879.00
             566.21,884.92 565.02,882.37 565.00,892.00
             565.00,892.00 565.00,926.00 565.00,926.00
             565.11,932.67 566.34,932.23 567.06,937.00
             567.06,937.00 567.06,944.00 567.06,944.00
             567.06,944.00 568.74,950.00 568.74,950.00
             568.74,950.00 569.26,956.00 569.26,956.00
             570.97,966.37 574.66,977.05 578.00,987.00
             578.00,987.00 583.69,1003.72 583.69,1003.72
             608.57,1064.75 661.48,1117.16 722.29,1142.31
             731.25,1146.01 760.72,1155.21 770.00,1156.74
             770.00,1156.74 776.00,1157.26 776.00,1157.26
             776.00,1157.26 782.00,1158.74 782.00,1158.74
             782.00,1158.74 790.00,1159.26 790.00,1159.26
             796.29,1160.29 793.34,1160.98 802.00,1161.00
             802.00,1161.00 834.00,1161.00 834.00,1161.00
             842.66,1160.98 839.71,1160.29 846.00,1159.26
             846.00,1159.26 854.00,1158.74 854.00,1158.74
             854.00,1158.74 869.00,1155.45 869.00,1155.45
             869.00,1155.45 883.00,1152.56 883.00,1152.56
             908.36,1146.08 935.96,1132.90 957.73,1118.44
             957.73,1118.44 981.96,1100.63 981.96,1100.63
             981.96,1100.63 992.04,1090.65 992.04,1090.65
             995.09,1087.69 1002.14,1079.39 1006.09,1079.17
             1010.03,1078.95 1014.51,1082.59 1018.00,1084.51
             1018.00,1084.51 1048.20,1102.28 1048.20,1102.28
             1048.20,1102.28 1071.91,1115.57 1071.91,1115.57
             1071.91,1115.57 1109.91,1137.57 1109.91,1137.57
             1109.91,1137.57 1125.00,1146.73 1125.00,1146.73
             1125.00,1146.73 1149.00,1160.73 1149.00,1160.73
             1152.11,1162.48 1162.40,1167.83 1164.45,1169.86
             1167.86,1173.24 1164.96,1175.95 1162.74,1178.74
             1162.74,1178.74 1150.92,1193.18 1150.92,1193.18
             1145.66,1200.42 1138.87,1206.26 1132.67,1212.67
             1132.67,1212.67 1127.55,1218.78 1127.55,1218.78
             1127.55,1218.78 1120.67,1224.67 1120.67,1224.67
             1120.67,1224.67 1105.68,1239.46 1105.68,1239.46
             1105.68,1239.46 1088.76,1252.74 1088.76,1252.74
             1045.21,1288.57 992.12,1314.39 938.00,1329.71
             938.00,1329.71 921.00,1334.55 921.00,1334.55
             921.00,1334.55 915.00,1335.45 915.00,1335.45
             915.00,1335.45 903.00,1338.55 903.00,1338.55
             903.00,1338.55 896.00,1339.26 896.00,1339.26
             889.48,1340.34 879.36,1342.96 873.00,1343.00
             861.76,1343.07 865.56,1344.14 859.00,1344.94
             859.00,1344.94 846.00,1344.94 846.00,1344.94
             837.69,1345.14 841.20,1346.98 826.00,1347.00
             826.00,1347.00 807.00,1347.00 807.00,1347.00
             798.19,1346.94 799.74,1345.13 792.00,1345.00
             792.00,1345.00 778.00,1345.00 778.00,1345.00
             771.48,1344.89 772.54,1344.00 768.00,1343.26
             768.00,1343.26 758.00,1342.74 758.00,1342.74
             758.00,1342.74 740.00,1339.26 740.00,1339.26
             740.00,1339.26 734.00,1338.74 734.00,1338.74
             734.00,1338.74 721.00,1335.45 721.00,1335.45
             721.00,1335.45 715.00,1334.55 715.00,1334.55
             715.00,1334.55 698.00,1329.71 698.00,1329.71
             698.00,1329.71 651.72,1313.69 651.72,1313.69
             651.72,1313.69 636.00,1307.45 636.00,1307.45
             636.00,1307.45 605.00,1291.27 605.00,1291.27
             589.94,1282.78 574.93,1273.94 561.00,1263.63
             561.00,1263.63 546.49,1252.14 546.49,1252.14
             546.49,1252.14 530.09,1239.13 530.09,1239.13
             530.09,1239.13 515.96,1225.37 515.96,1225.37
             515.96,1225.37 510.11,1220.74 510.11,1220.74
             510.11,1220.74 496.63,1206.03 496.63,1206.03
             496.63,1206.03 486.54,1195.68 486.54,1195.68
             486.54,1195.68 473.86,1179.51 473.86,1179.51
             473.86,1179.51 462.37,1165.00 462.37,1165.00
             462.37,1165.00 433.03,1118.96 433.03,1118.96
             423.50,1101.81 415.72,1083.44 408.66,1065.17
             408.66,1065.17 396.29,1028.00 396.29,1028.00
             396.29,1028.00 393.45,1019.00 393.45,1019.00
             393.45,1019.00 390.55,1005.00 390.55,1005.00
             390.55,1005.00 387.26,992.00 387.26,992.00
             387.26,992.00 386.74,986.00 386.74,986.00
             386.74,986.00 383.26,968.00 383.26,968.00
             383.26,968.00 382.74,958.00 382.74,958.00
             382.00,953.46 381.11,954.52 380.94,948.00
             380.94,948.00 380.94,931.00 380.94,931.00
             380.21,925.10 379.02,927.63 379.00,918.00
             379.00,918.00 379.00,900.00 379.00,900.00
             379.02,884.80 380.86,888.31 381.00,880.00
             381.00,880.00 381.00,868.00 381.00,868.00
             381.11,861.48 382.00,862.54 382.74,858.00
             382.74,858.00 383.26,848.00 383.26,848.00
             383.26,848.00 386.74,830.00 386.74,830.00
             386.74,830.00 387.26,824.00 387.26,824.00
             387.26,824.00 390.55,811.00 390.55,811.00
             390.55,811.00 391.45,805.00 391.45,805.00
             396.45,782.33 408.96,747.36 418.55,726.00
             418.55,726.00 434.73,695.00 434.73,695.00
             449.36,668.69 466.48,643.92 486.04,621.04
             486.04,621.04 499.99,606.65 499.99,606.65
             499.99,606.65 506.13,599.05 506.13,599.05
             506.13,599.05 518.65,587.99 518.65,587.99
             518.65,587.99 531.04,576.04 531.04,576.04
             578.14,535.78 631.69,506.16 691.00,488.02
             691.00,488.02 715.00,481.45 715.00,481.45
             715.00,481.45 731.00,478.55 731.00,478.55
             741.92,476.15 754.91,473.18 766.00,473.00
             773.74,472.87 772.19,471.06 781.00,471.00
             789.21,470.95 790.73,471.56 799.00,469.38 Z
           M 1257.00,797.00
           C 1257.00,797.00 1327.00,797.00 1327.00,797.00
             1327.00,797.00 1327.00,725.00 1327.00,725.00
             1327.00,725.00 1401.00,725.00 1401.00,725.00
             1401.00,725.00 1401.00,797.00 1401.00,797.00
             1401.00,797.00 1466.00,797.00 1466.00,797.00
             1474.64,797.02 1474.98,797.36 1475.00,806.00
             1475.00,806.00 1475.00,864.00 1475.00,864.00
             1475.00,865.99 1475.23,869.81 1473.98,871.40
             1471.99,873.92 1459.48,873.00 1456.00,873.00
             1456.00,873.00 1401.00,873.00 1401.00,873.00
             1401.00,873.00 1401.00,943.00 1401.00,943.00
             1401.00,943.00 1466.00,943.00 1466.00,943.00
             1474.64,943.02 1474.98,943.36 1475.00,952.00
             1475.00,952.00 1475.00,1010.00 1475.00,1010.00
             1475.00,1011.99 1475.23,1015.81 1473.98,1017.40
             1471.99,1019.92 1459.48,1019.00 1456.00,1019.00
             1456.00,1019.00 1401.00,1019.00 1401.00,1019.00
             1401.00,1019.00 1401.00,1091.00 1401.00,1091.00
             1401.00,1091.00 1351.00,1091.00 1351.00,1091.00
             1351.00,1091.00 1325.00,1090.00 1325.00,1090.00
             1327.94,1080.53 1327.00,1071.82 1327.00,1062.00
             1327.00,1062.00 1327.00,1019.00 1327.00,1019.00
             1327.00,1019.00 1257.00,1019.00 1257.00,1019.00
             1257.00,1019.00 1257.00,1082.00 1257.00,1082.00
             1257.00,1083.99 1257.23,1087.81 1255.98,1089.40
             1253.99,1091.92 1241.48,1091.00 1238.00,1091.00
             1238.00,1091.00 1181.00,1091.00 1181.00,1091.00
             1181.00,1091.00 1181.00,1019.00 1181.00,1019.00
             1181.00,1019.00 1116.00,1019.00 1116.00,1019.00
             1107.36,1018.98 1107.02,1018.64 1107.00,1010.00
             1107.00,1010.00 1107.00,952.00 1107.00,952.00
             1107.00,950.01 1106.77,946.19 1108.02,944.60
             1110.01,942.08 1122.52,943.00 1126.00,943.00
             1126.00,943.00 1181.00,943.00 1181.00,943.00
             1181.00,943.00 1181.00,873.00 1181.00,873.00
             1181.00,873.00 1116.00,873.00 1116.00,873.00
             1107.36,872.98 1107.02,872.64 1107.00,864.00
             1107.00,864.00 1107.00,806.00 1107.00,806.00
             1107.00,804.01 1106.77,800.19 1108.02,798.60
             1110.01,796.08 1122.52,797.00 1126.00,797.00
             1126.00,797.00 1181.00,797.00 1181.00,797.00
             1181.00,797.00 1181.00,725.00 1181.00,725.00
             1181.00,725.00 1248.00,725.00 1248.00,725.00
             1249.99,725.00 1253.81,724.77 1255.40,726.02
             1257.90,728.00 1257.00,739.61 1257.00,743.00
             1257.00,743.00 1257.00,797.00 1257.00,797.00 Z
           M 1257.00,873.00
           C 1257.00,873.00 1257.00,943.00 1257.00,943.00
             1257.00,943.00 1327.00,943.00 1327.00,943.00
             1327.00,943.00 1327.00,873.00 1327.00,873.00
             1327.00,873.00 1257.00,873.00 1257.00,873.00 Z" />
</svg>
