<?xml version="1.0" encoding="UTF-8" standalone="no"?>
<!DOCTYPE svg PUBLIC "-//W3C//DTD SVG 20010904//EN"
              "http://www.w3.org/TR/2001/REC-SVG-20010904/DTD/svg10.dtd">

<svg xmlns="http://www.w3.org/2000/svg"
     width="221.556mm" height="182.748mm"
     viewBox="0 0 1256 1036">
  <path id="Selection #1"
        fill="#4682b4" stroke="white" stroke-width="1"
        d="M 1007.00,109.00
           C 994.33,105.12 964.67,105.12 952.00,109.00
             949.96,103.45 946.01,97.23 943.00,92.00
             938.70,84.53 935.97,77.42 927.00,74.62
             918.09,71.84 911.04,75.25 903.00,78.72
             890.33,84.19 878.18,91.03 867.00,99.15
             856.68,106.65 850.64,110.41 851.02,124.00
             851.24,132.22 857.69,140.91 861.72,148.00
             863.54,151.20 866.80,155.23 865.28,159.00
             865.28,159.00 851.80,179.00 851.80,179.00
             851.80,179.00 840.73,201.85 840.73,201.85
             838.71,205.00 836.40,204.93 833.00,205.00
             819.90,205.24 803.41,201.63 794.65,214.00
             790.77,219.47 789.08,233.21 789.00,240.00
             789.00,240.00 789.93,277.00 789.93,277.00
             790.95,288.02 793.25,297.86 805.00,301.89
             808.58,303.12 811.31,302.99 815.00,303.00
             815.00,303.00 833.00,303.00 833.00,303.00
             836.46,303.07 838.67,303.01 840.78,306.15
             840.78,306.15 851.43,328.00 851.43,328.00
             851.43,328.00 864.99,348.00 864.99,348.00
             867.17,352.65 861.48,359.91 859.15,364.00
             853.23,374.37 846.43,385.12 854.13,396.99
             857.28,401.84 865.13,407.34 870.00,410.66
             882.87,419.42 885.29,420.54 899.00,427.24
             906.13,430.73 913.90,434.38 922.00,433.96
             934.63,433.30 939.71,421.53 945.15,412.00
             947.32,408.20 950.32,400.46 955.04,399.89
             955.04,399.89 967.00,400.96 967.00,400.96
             967.00,400.96 980.00,401.82 980.00,401.82
             980.00,401.82 993.00,400.84 993.00,400.84
             996.56,400.67 1003.63,398.76 1006.62,400.84
             1008.81,402.23 1011.99,408.50 1013.42,411.00
             1019.97,422.41 1024.48,434.63 1040.00,433.96
             1046.68,433.67 1055.00,429.69 1061.00,426.76
             1074.74,420.03 1081.43,416.34 1094.00,407.26
             1096.50,405.45 1100.78,402.12 1102.79,399.91
             1114.46,387.10 1106.45,375.25 1099.42,363.00
             1097.96,360.45 1093.61,353.57 1093.53,351.00
             1093.41,347.42 1099.77,340.19 1101.98,337.00
             1105.87,331.36 1111.27,322.23 1114.00,316.00
             1115.30,313.01 1117.83,305.67 1120.39,304.02
             1122.32,302.78 1125.74,303.00 1128.00,303.00
             1128.00,303.00 1146.00,303.00 1146.00,303.00
             1167.77,302.73 1169.28,283.86 1170.04,267.00
             1170.04,267.00 1171.00,256.00 1171.00,256.00
             1171.00,256.00 1170.09,242.00 1170.09,242.00
             1169.19,228.90 1169.94,211.62 1155.00,206.13
             1151.58,204.88 1148.56,205.01 1145.00,205.00
             1145.00,205.00 1128.00,205.00 1128.00,205.00
             1125.74,205.00 1122.32,205.22 1120.39,203.98
             1117.99,202.43 1116.02,196.72 1114.85,194.00
             1111.62,186.49 1109.35,181.96 1104.95,175.00
             1102.52,171.16 1093.01,159.63 1093.50,156.00
             1093.77,154.03 1096.88,148.94 1098.00,147.00
             1101.83,140.33 1107.80,131.63 1108.47,124.00
             1109.22,115.47 1104.34,108.74 1098.00,103.67
             1086.33,94.34 1068.88,83.80 1055.00,78.20
             1047.10,75.01 1041.70,72.03 1033.00,74.35
             1029.77,75.21 1026.70,76.96 1024.33,79.33
             1020.63,83.02 1009.37,103.52 1007.00,109.00 Z
           M 544.00,787.00
           C 550.75,785.78 558.63,782.15 565.00,779.42
             580.72,772.70 597.78,763.15 612.00,753.67
             612.00,753.67 630.00,740.34 630.00,740.34
             631.91,738.84 636.37,734.70 638.58,734.42
             640.39,734.19 642.50,735.71 644.01,736.58
             644.01,736.58 657.00,744.00 657.00,744.00
             669.59,751.24 692.00,766.83 706.00,767.00
             710.10,767.05 715.06,767.25 719.00,766.24
             734.69,762.22 743.62,748.97 753.20,737.00
             774.22,710.73 785.11,695.38 801.58,666.00
             808.34,653.92 816.76,634.97 814.56,621.00
             811.11,599.08 799.86,593.68 782.00,584.75
             782.00,584.75 759.00,573.25 759.00,573.25
             755.62,571.56 740.27,564.38 738.84,562.37
             736.72,559.86 738.57,553.11 738.84,550.00
             738.84,550.00 742.00,517.00 742.00,517.00
             742.07,501.55 741.63,486.34 739.72,471.00
             739.25,467.29 736.54,456.36 738.69,453.63
             740.25,451.65 753.82,445.35 757.00,443.75
             757.00,443.75 780.00,432.25 780.00,432.25
             798.17,423.16 813.72,415.27 814.00,392.00
             814.18,376.30 808.12,364.75 801.25,351.00
             787.84,324.19 770.47,300.34 751.80,277.00
             739.94,262.18 730.11,248.34 709.00,248.34
             692.13,248.33 672.60,262.82 658.00,271.15
             654.68,273.05 641.87,281.07 639.00,280.99
             636.13,280.92 633.14,277.99 631.00,276.26
             631.00,276.26 618.00,266.43 618.00,266.43
             601.79,254.84 581.38,243.14 563.00,235.42
             559.01,233.75 546.97,230.01 545.02,226.78
             544.00,225.08 544.04,222.91 544.00,221.00
             544.00,221.00 544.00,183.00 544.00,183.00
             544.00,164.46 544.56,149.21 527.00,137.36
             514.85,129.16 496.40,128.38 482.00,126.84
             452.87,123.72 430.94,124.74 402.00,127.84
             379.64,130.23 356.00,133.30 348.93,159.00
             347.50,164.19 347.01,169.64 347.00,175.00
             347.00,175.00 347.00,220.00 347.00,220.00
             347.00,222.21 347.22,225.71 345.98,227.58
             344.23,230.21 329.77,235.09 326.00,236.72
             308.87,244.11 292.36,253.43 277.00,264.02
             277.00,264.02 255.00,280.58 255.00,280.58
             250.28,282.75 239.35,274.79 235.00,272.20
             235.00,272.20 197.00,251.09 197.00,251.09
             192.66,249.53 189.57,249.06 185.00,249.00
             160.80,248.72 153.97,259.54 140.00,277.00
             120.53,301.34 103.76,323.98 89.75,352.00
             84.50,362.51 77.77,376.18 77.09,388.00
             76.43,399.59 82.10,412.78 91.09,420.10
             95.71,423.86 99.95,425.58 105.00,428.42
             105.00,428.42 133.00,442.75 133.00,442.75
             136.82,444.66 151.26,451.24 152.96,453.93
             154.86,456.32 153.22,462.16 152.96,465.00
             152.96,465.00 150.00,492.00 150.00,492.00
             150.00,492.00 150.00,522.00 150.00,522.00
             150.00,522.00 151.84,543.00 151.84,543.00
             152.23,546.64 154.82,559.86 153.14,562.21
             151.41,564.63 136.61,571.44 133.00,573.25
             133.00,573.25 110.00,584.75 110.00,584.75
             91.70,593.90 78.39,602.32 77.09,625.00
             76.42,636.72 84.55,653.58 89.75,664.00
             103.65,691.79 124.01,720.15 143.92,744.00
             155.91,758.37 164.28,767.22 184.00,767.00
             199.66,766.82 221.09,751.63 235.00,743.72
             239.44,741.19 250.26,733.25 255.00,735.42
             255.00,735.42 264.00,742.12 264.00,742.12
             264.00,742.12 282.00,755.12 282.00,755.12
             293.48,763.03 313.11,773.43 326.00,779.00
             329.52,780.52 344.50,786.18 345.98,788.41
             347.22,790.30 347.00,793.78 347.00,796.00
             347.00,796.00 347.00,840.00 347.00,840.00
             347.01,845.14 347.59,852.09 349.04,857.00
             352.71,869.42 362.55,879.88 375.00,883.78
             375.00,883.78 389.00,886.41 389.00,886.41
             402.54,888.59 416.29,889.98 430.00,890.00
             430.00,890.00 446.00,891.00 446.00,891.00
             446.00,891.00 460.00,890.00 460.00,890.00
             473.36,889.85 489.84,888.62 503.00,886.41
             511.64,884.96 518.34,884.39 526.00,879.45
             545.43,866.93 544.00,849.92 544.00,830.00
             544.00,830.00 544.00,787.00 544.00,787.00 Z
           M 970.00,192.30
           C 988.34,190.48 1011.18,195.07 1024.82,208.30
             1029.51,212.85 1035.03,223.75 1037.31,230.00
             1050.09,265.10 1034.41,301.64 998.00,313.48
             991.17,315.70 984.11,316.08 977.00,316.00
             964.07,315.85 943.10,308.23 934.18,298.91
             930.82,295.40 927.95,290.33 925.76,286.00
             916.55,267.86 914.56,245.78 923.32,227.00
             932.50,207.34 949.11,196.20 970.00,192.30 Z
           M 434.00,384.28
           C 447.45,383.03 462.91,384.37 476.00,387.63
             533.73,401.99 570.68,453.20 570.00,512.00
             569.81,527.54 564.96,545.64 559.20,560.00
             555.13,570.15 543.97,591.11 536.54,598.54
             529.07,606.00 507.23,617.74 497.00,621.80
             480.48,628.34 461.78,632.20 444.00,632.00
             387.78,631.34 339.16,592.38 325.63,538.00
             323.51,529.50 322.01,520.77 322.00,512.00
             321.96,489.18 324.25,476.31 332.80,455.00
             337.05,444.41 346.92,426.45 354.46,418.17
             359.24,412.93 366.91,408.45 373.00,404.80
             393.84,392.32 410.29,387.77 434.00,384.28 Z
           M 952.00,910.00
           C 964.98,913.73 994.04,913.80 1007.00,910.00
             1009.41,915.56 1012.51,920.79 1015.60,926.00
             1021.80,936.45 1025.97,945.57 1040.00,944.96
             1047.04,944.66 1055.68,940.33 1062.00,937.26
             1074.32,931.27 1086.19,924.47 1097.00,915.99
             1103.55,910.85 1109.55,903.99 1108.66,895.00
             1107.91,887.37 1101.46,877.85 1097.70,871.00
             1096.51,868.85 1093.43,864.26 1093.40,862.00
             1093.36,858.75 1100.18,851.06 1102.25,848.00
             1106.04,842.43 1111.41,833.14 1114.14,827.00
             1115.43,824.11 1117.98,816.63 1120.41,815.02
             1122.30,813.78 1125.78,814.00 1128.00,814.00
             1128.00,814.00 1145.00,814.00 1145.00,814.00
             1148.35,813.98 1150.75,814.02 1154.00,812.89
             1168.91,807.71 1169.44,791.23 1170.04,778.00
             1170.04,778.00 1171.00,763.00 1171.00,763.00
             1171.00,763.00 1170.04,752.00 1170.04,752.00
             1169.46,739.23 1169.29,722.38 1155.00,717.13
             1151.58,715.88 1148.56,716.01 1145.00,716.00
             1145.00,716.00 1128.00,716.00 1128.00,716.00
             1125.74,716.00 1122.32,716.22 1120.39,714.98
             1118.05,713.47 1116.41,708.58 1115.23,706.00
             1112.02,698.97 1108.90,692.58 1104.77,686.00
             1102.26,682.00 1092.74,671.07 1093.53,667.00
             1093.85,665.36 1097.76,658.90 1098.85,657.00
             1105.46,645.41 1113.79,633.95 1104.36,621.01
             1101.35,616.88 1093.37,611.04 1089.00,608.02
             1077.72,600.24 1065.73,593.49 1053.00,588.40
             1045.78,585.51 1037.57,583.09 1030.00,586.56
             1021.52,590.44 1010.79,611.24 1007.00,620.00
             994.33,616.12 964.67,616.12 952.00,620.00
             950.28,615.32 947.73,611.31 945.28,607.00
             940.72,598.98 936.53,588.67 927.00,585.80
             918.41,583.20 910.76,586.37 903.00,589.72
             890.02,595.32 876.17,602.99 865.00,611.66
             855.83,618.78 850.68,622.76 851.02,635.00
             851.25,643.37 857.49,651.87 861.58,659.00
             863.35,662.08 866.65,666.36 865.35,670.00
             865.35,670.00 852.45,689.00 852.45,689.00
             852.45,689.00 840.19,713.69 840.19,713.69
             837.82,716.44 834.30,715.99 831.00,716.00
             824.77,716.01 810.19,715.30 805.00,717.11
             791.24,721.89 789.15,738.33 789.00,751.00
             788.86,763.33 788.38,775.74 789.85,788.00
             790.75,795.60 791.56,802.87 797.47,808.47
             805.55,816.14 820.47,813.98 831.00,814.00
             833.28,814.00 836.76,813.79 838.73,815.02
             841.18,816.56 842.92,822.23 844.26,825.00
             848.03,832.80 851.51,839.76 856.33,847.00
             858.13,849.69 865.26,858.89 865.65,861.00
             866.22,864.04 862.54,869.33 861.00,872.00
             857.03,878.90 851.24,886.88 851.02,895.00
             850.66,907.94 856.18,911.65 866.00,918.85
             878.33,927.89 885.52,931.66 899.00,938.24
             904.70,941.03 912.65,944.69 919.00,944.96
             933.49,945.59 938.48,934.95 944.72,924.00
             947.33,919.42 950.18,914.96 952.00,910.00 Z
           M 970.00,703.30
           C 988.21,701.49 1009.96,705.73 1023.83,718.46
             1029.15,723.35 1034.34,733.22 1036.94,740.00
             1040.09,748.25 1042.51,759.15 1041.91,768.00
             1039.53,802.95 1011.65,827.40 977.00,827.00
             964.07,826.85 943.10,819.23 934.18,809.91
             930.82,806.40 927.95,801.33 925.76,797.00
             916.55,778.86 914.56,756.78 923.32,738.00
             932.55,718.24 949.00,707.22 970.00,703.30 Z" />
</svg>
