<?xml version="1.0" encoding="UTF-8" standalone="no"?>
<!DOCTYPE svg PUBLIC "-//W3C//DTD SVG 20010904//EN"
              "http://www.w3.org/TR/2001/REC-SVG-20010904/DTD/svg10.dtd">

<svg xmlns="http://www.w3.org/2000/svg"
     width="222.261mm" height="181.69mm"
     viewBox="0 0 1260 1030">
  <path id="Selection"
        fill="#4682b4" stroke="white" stroke-width="1"
        d="M 322.00,130.09
           C 311.98,131.94 304.21,133.68 295.00,138.27
             289.56,140.98 281.52,146.20 277.00,150.18
             248.51,175.27 249.00,203.43 249.00,238.00
             249.00,238.00 249.00,294.00 249.00,294.00
             249.00,294.00 249.00,808.00 249.00,808.00
             249.01,817.37 250.56,830.12 253.51,839.00
             256.41,847.69 259.05,853.50 264.43,861.00
             279.04,881.39 302.60,894.96 328.00,895.00
             328.00,895.00 355.00,895.00 355.00,895.00
             355.00,895.00 408.00,895.00 408.00,895.00
             408.00,895.00 936.00,895.00 936.00,895.00
             965.05,894.95 992.80,876.79 1005.73,851.00
             1012.18,838.12 1014.83,823.32 1015.00,809.00
             1015.00,809.00 1015.00,598.00 1015.00,598.00
             1015.00,598.00 1015.00,218.00 1015.00,218.00
             1014.98,203.05 1012.37,187.47 1005.63,174.00
             993.05,148.84 964.25,130.33 936.00,130.09
             936.00,130.09 802.00,130.09 802.00,130.09
             802.00,130.09 534.00,130.09 534.00,130.09
             534.00,130.09 394.00,130.09 394.00,130.09
             394.00,130.09 322.00,130.09 322.00,130.09 Z
           M 705.00,761.00
           C 705.00,761.00 747.00,737.15 747.00,737.15
             749.86,735.52 760.29,728.83 762.91,729.09
             765.93,729.40 768.75,734.67 770.43,737.00
             774.64,742.86 780.38,749.86 786.00,754.33
             798.97,764.67 815.09,771.92 832.00,771.92
             832.00,771.92 840.00,771.09 840.00,771.09
             845.89,770.66 848.09,770.72 854.00,768.96
             865.40,765.58 875.73,759.42 880.54,748.00
             891.27,722.50 867.43,705.41 847.00,696.42
             810.53,680.40 761.78,663.76 740.45,628.00
             731.14,612.39 727.75,597.92 726.96,580.00
             726.96,580.00 726.18,572.00 726.18,572.00
             726.18,572.00 726.91,565.00 726.91,565.00
             729.25,533.03 744.17,508.00 772.00,491.45
             792.76,479.11 817.41,476.73 841.00,477.00
             862.35,477.25 888.18,485.26 905.00,498.52
             908.48,501.26 913.76,506.70 916.99,510.00
             922.14,515.29 926.36,520.69 930.19,527.00
             931.24,528.73 933.28,531.88 933.27,533.91
             933.25,536.80 930.13,538.56 928.00,539.95
             928.00,539.95 912.00,550.05 912.00,550.05
             912.00,550.05 889.00,564.69 889.00,564.69
             886.74,566.14 881.70,569.95 879.09,569.76
             876.55,569.57 874.98,566.86 873.66,564.99
             870.76,560.90 868.58,557.65 864.96,554.04
             855.96,545.03 846.57,541.22 834.00,540.74
             815.84,540.05 799.28,550.67 798.09,570.00
             797.26,583.54 805.31,593.55 816.00,600.64
             829.73,609.76 862.31,622.64 879.00,630.31
             904.32,641.94 930.32,659.18 944.14,684.00
             960.07,712.61 959.69,760.26 941.91,788.00
             930.21,806.26 914.46,817.08 895.00,825.69
             874.75,834.65 849.85,836.25 828.00,836.00
             828.00,836.00 818.00,835.09 818.00,835.09
             783.18,832.54 752.81,819.84 728.00,795.00
             720.37,787.36 707.03,771.68 705.00,761.00 Z
           M 666.00,481.00
           C 666.00,481.00 666.00,681.00 666.00,681.00
             666.00,718.43 670.24,758.27 650.72,792.00
             640.86,809.03 622.46,822.64 604.00,829.14
             576.61,838.78 536.00,838.30 509.00,827.55
             498.10,823.21 487.89,816.88 479.00,809.27
             468.21,800.03 453.95,782.84 450.00,769.00
             450.00,769.00 488.00,746.40 488.00,746.40
             488.00,746.40 510.00,734.00 510.00,734.00
             515.64,747.02 526.59,762.36 540.00,768.05
             552.30,773.26 573.10,771.88 582.68,761.82
             590.41,753.69 592.98,741.87 593.00,731.00
             593.00,731.00 593.00,481.00 593.00,481.00
             593.00,481.00 666.00,481.00 666.00,481.00 Z" />
</svg>
