<?xml version="1.0" encoding="UTF-8" standalone="no"?>
<!DOCTYPE svg PUBLIC "-//W3C//DTD SVG 20010904//EN"
              "http://www.w3.org/TR/2001/REC-SVG-20010904/DTD/svg10.dtd">

<svg xmlns="http://www.w3.org/2000/svg"
     width="210.266mm" height="198.271mm"
     viewBox="0 0 1192 1124">
  <path id="Selection"
        fill="#4682b4" stroke="white" stroke-width="1"
        d="M 523.00,23.85
           C 517.21,27.02 515.53,30.69 512.00,36.00
             512.00,36.00 498.14,58.00 498.14,58.00
             494.10,64.81 490.26,72.77 481.00,72.57
             476.22,72.46 471.18,66.32 468.09,63.00
             468.09,63.00 452.28,46.00 452.28,46.00
             445.86,38.71 439.99,30.51 429.00,32.99
             421.62,34.66 420.36,40.88 417.99,47.00
             417.99,47.00 407.12,76.00 407.12,76.00
             405.41,80.71 403.88,86.05 398.96,88.30
             389.39,92.70 385.43,87.82 378.00,82.23
             378.00,82.23 357.00,67.26 357.00,67.26
             352.15,63.75 349.34,60.74 343.00,60.19
             332.08,59.23 328.85,66.69 327.32,76.00
             327.32,76.00 324.68,95.00 324.68,95.00
             324.68,95.00 323.09,103.00 323.09,103.00
             322.48,109.52 321.90,117.95 315.98,121.81
             307.40,127.42 302.16,123.49 294.00,119.50
             294.00,119.50 275.00,110.99 275.00,110.99
             270.08,108.63 264.52,105.40 259.00,105.05
             252.83,104.67 247.33,106.73 245.07,113.00
             243.46,117.87 244.99,124.58 245.07,130.00
             245.07,130.00 245.07,156.00 245.07,156.00
             245.07,156.00 245.07,165.99 245.07,165.99
             244.49,168.43 242.82,169.81 240.98,171.38
             234.53,176.92 232.87,176.19 225.00,174.14
             225.00,174.14 192.00,166.41 192.00,166.41
             185.97,164.96 179.39,163.50 174.34,168.39
             170.60,172.02 170.78,177.17 171.04,182.00
             171.04,182.00 179.36,219.00 179.36,219.00
             181.01,226.67 182.69,228.97 176.73,235.67
             175.01,237.60 173.52,238.93 170.96,239.58
             168.01,240.34 159.22,239.01 155.00,239.00
             155.00,239.00 131.00,239.00 131.00,239.00
             127.99,239.00 120.50,238.76 118.00,239.51
             111.89,241.35 109.67,247.08 110.19,253.00
             110.75,259.52 122.31,282.40 125.63,290.00
             129.93,299.80 133.20,300.71 126.91,309.98
             123.12,315.57 120.75,314.41 115.00,315.86
             115.00,315.86 105.00,317.37 105.00,317.37
             105.00,317.37 87.00,320.79 87.00,320.79
             87.00,320.79 81.00,321.32 81.00,321.32
             71.54,322.87 64.31,326.06 65.05,337.00
             65.45,342.88 69.19,346.49 72.52,351.00
             72.52,351.00 87.48,372.00 87.48,372.00
             93.11,379.62 97.39,382.30 93.45,391.98
             90.92,398.21 85.78,398.79 80.00,400.88
             80.00,400.88 51.00,411.83 51.00,411.83
             43.01,414.66 36.00,417.90 37.14,428.00
             37.78,433.70 42.18,437.28 46.01,441.04
             46.01,441.04 67.00,460.83 67.00,460.83
             73.44,466.66 78.37,469.25 76.85,479.00
             75.95,484.80 70.50,486.73 66.00,489.45
             66.00,489.45 34.09,509.35 34.09,509.35
             30.05,512.40 26.54,517.71 27.65,523.00
             29.33,530.99 36.55,534.54 43.00,538.28
             43.00,538.28 65.00,551.94 65.00,551.94
             72.79,556.77 78.52,558.18 76.85,569.00
             76.00,574.53 70.85,577.68 67.00,581.17
             67.00,581.17 46.01,600.96 46.01,600.96
             42.18,604.72 37.78,608.30 37.14,614.00
             35.94,624.67 43.78,627.59 52.00,630.53
             52.00,630.53 80.00,641.12 80.00,641.12
             86.63,643.52 91.19,643.74 93.82,651.00
             97.09,660.06 92.69,662.95 87.48,670.00
             87.48,670.00 72.52,691.00 72.52,691.00
             69.19,695.51 65.45,699.12 65.05,705.00
             64.31,715.97 71.54,719.10 81.00,720.68
             81.00,720.68 105.00,724.63 105.00,724.63
             105.00,724.63 115.00,726.14 115.00,726.14
             120.75,727.59 123.12,726.43 126.91,732.02
             133.20,741.29 129.93,742.20 125.63,752.00
             122.31,759.60 110.75,782.48 110.19,789.00
             109.40,798.06 114.12,802.85 123.00,803.00
             123.00,803.00 154.00,803.00 154.00,803.00
             158.63,802.99 167.55,801.53 170.96,802.42
             173.53,803.08 175.00,804.39 176.73,806.33
             182.69,813.03 181.01,815.33 179.36,823.00
             179.36,823.00 171.04,860.00 171.04,860.00
             170.78,864.83 170.60,869.98 174.34,873.61
             179.39,878.50 185.97,877.04 192.00,875.59
             192.00,875.59 225.00,867.86 225.00,867.86
             232.82,865.83 234.65,865.14 240.98,870.62
             242.82,872.20 244.49,873.56 245.07,876.01
             245.07,876.01 245.07,886.00 245.07,886.00
             245.07,886.00 245.07,912.00 245.07,912.00
             244.99,917.42 243.46,924.13 245.07,929.00
             247.33,935.27 252.83,937.33 259.00,936.95
             264.52,936.60 270.08,933.37 275.00,931.01
             275.00,931.01 294.00,922.50 294.00,922.50
             302.16,918.51 307.40,914.58 315.98,920.19
             321.90,924.05 322.48,932.48 323.09,939.00
             323.09,939.00 324.68,947.00 324.68,947.00
             324.68,947.00 327.32,966.00 327.32,966.00
             328.85,975.31 332.08,982.77 343.00,981.81
             349.34,981.26 352.15,978.25 357.00,974.74
             357.00,974.74 378.00,959.77 378.00,959.77
             385.43,954.18 389.39,949.30 398.96,953.70
             403.88,955.95 405.41,961.29 407.12,966.00
             407.12,966.00 417.99,995.00 417.99,995.00
             420.78,1002.20 421.96,1008.37 431.00,1009.32
             440.99,1010.36 446.38,1002.69 452.28,996.00
             452.28,996.00 467.17,980.00 467.17,980.00
             470.33,976.51 476.08,969.54 481.00,969.43
             489.23,969.25 493.37,975.70 497.00,982.00
             497.00,982.00 514.00,1009.00 514.00,1009.00
             517.77,1014.60 520.58,1018.96 528.00,1018.96
             536.28,1018.96 539.25,1013.13 543.33,1007.00
             543.33,1007.00 557.86,984.00 557.86,984.00
             561.61,977.68 564.06,971.50 572.00,969.83
             579.54,968.24 584.19,974.87 588.83,980.00
             588.83,980.00 603.72,996.00 603.72,996.00
             608.98,1001.98 614.25,1009.34 623.00,1009.43
             633.41,1009.53 634.89,1003.05 638.01,995.00
             638.01,995.00 648.88,966.00 648.88,966.00
             650.83,960.63 652.19,955.50 658.01,953.33
             667.42,949.81 670.62,954.21 678.00,959.77
             678.00,959.77 699.00,974.74 699.00,974.74
             703.85,978.25 706.66,981.26 713.00,981.81
             723.74,982.75 726.64,976.10 728.49,967.00
             728.49,967.00 729.32,959.00 729.32,959.00
             729.32,959.00 732.91,939.00 732.91,939.00
             733.37,934.09 734.37,924.89 738.15,921.55
             746.62,914.04 753.41,918.30 762.00,922.50
             762.00,922.50 781.00,931.01 781.00,931.01
             787.28,934.03 792.76,937.44 800.00,936.95
             808.32,936.38 812.26,929.82 811.68,922.00
             811.68,922.00 811.06,914.00 811.06,914.00
             811.06,914.00 811.06,886.00 811.06,886.00
             811.00,883.49 810.41,876.88 811.06,875.04
             812.40,872.18 819.24,866.45 822.42,866.29
             824.68,866.17 832.42,868.32 835.00,868.89
             835.00,868.89 863.00,875.36 863.00,875.36
             869.72,876.81 877.12,879.06 882.43,872.79
             886.62,867.84 885.05,858.75 883.58,853.00
             883.58,853.00 876.84,824.00 876.84,824.00
             876.14,820.40 874.48,816.73 875.31,813.00
             876.23,808.92 880.91,803.49 885.04,802.42
             888.45,801.53 897.37,802.99 902.00,803.00
             902.00,803.00 931.00,803.00 931.00,803.00
             939.12,802.98 944.97,801.43 945.81,792.00
             946.30,786.56 943.89,781.83 941.79,777.00
             941.79,777.00 929.93,751.00 929.93,751.00
             927.59,745.81 924.07,741.67 926.78,736.00
             931.95,725.18 939.58,726.29 950.00,724.79
             950.00,724.79 972.00,721.00 972.00,721.00
             980.26,720.20 990.27,717.96 990.95,708.00
             991.52,699.55 987.34,696.37 982.74,690.00
             982.74,690.00 968.52,670.00 968.52,670.00
             963.85,663.68 959.17,660.23 961.84,652.00
             964.63,643.43 969.31,643.60 977.00,640.75
             977.00,640.75 1003.00,630.88 1003.00,630.88
             1010.54,628.15 1017.90,626.51 1018.87,617.00
             1019.63,609.53 1014.81,605.69 1009.99,600.96
             1009.99,600.96 990.00,582.09 990.00,582.09
             983.38,575.92 977.54,573.32 979.15,563.00
             980.09,556.96 986.35,554.82 991.00,551.94
             991.00,551.94 1019.99,534.00 1019.99,534.00
             1024.37,531.01 1028.58,526.74 1028.58,521.00
             1028.58,513.82 1022.42,509.43 1017.00,506.06
             1017.00,506.06 991.00,490.06 991.00,490.06
             983.22,485.24 978.17,484.57 979.06,474.00
             979.60,467.58 984.61,464.81 989.00,460.83
             989.00,460.83 1009.99,441.04 1009.99,441.04
             1013.82,437.28 1018.22,433.70 1018.86,428.00
             1020.00,417.90 1012.99,414.66 1005.00,411.83
             1005.00,411.83 976.00,400.88 976.00,400.88
             970.22,398.79 965.08,398.21 962.55,391.98
             958.61,382.30 962.89,379.62 968.52,372.00
             968.52,372.00 983.48,351.00 983.48,351.00
             986.81,346.49 990.55,342.88 990.95,337.00
             991.69,326.06 984.46,322.87 975.00,321.32
             975.00,321.32 969.00,320.79 969.00,320.79
             969.00,320.79 951.00,317.37 951.00,317.37
             951.00,317.37 941.00,315.86 941.00,315.86
             935.25,314.41 932.88,315.57 929.09,309.98
             922.80,300.71 926.07,299.80 930.37,290.00
             933.69,282.40 945.25,259.52 945.81,253.00
             946.60,243.94 941.88,239.15 933.00,239.00
             933.00,239.00 901.00,239.00 901.00,239.00
             896.78,239.01 887.99,240.34 885.04,239.58
             882.48,238.93 880.99,237.60 879.27,235.67
             873.31,228.97 874.99,226.67 876.64,219.00
             876.64,219.00 884.96,182.00 884.96,182.00
             885.22,177.17 885.40,172.02 881.66,168.39
             876.61,163.50 870.03,164.96 864.00,166.41
             864.00,166.41 831.00,174.14 831.00,174.14
             823.18,176.17 821.35,176.86 815.02,171.38
             813.18,169.80 811.51,168.44 810.93,165.99
             810.93,165.99 810.93,156.00 810.93,156.00
             810.93,156.00 810.93,130.00 810.93,130.00
             811.01,124.58 812.54,117.87 810.93,113.00
             808.67,106.73 803.17,104.67 797.00,105.05
             791.48,105.40 785.92,108.63 781.00,110.99
             781.00,110.99 762.00,119.50 762.00,119.50
             753.46,123.67 747.80,127.73 739.06,121.16
             734.94,118.07 735.02,114.61 733.86,110.00
             733.86,110.00 728.91,78.00 728.91,78.00
             728.15,69.72 725.55,61.04 716.00,60.19
             708.34,59.51 704.71,63.13 699.00,67.26
             699.00,67.26 678.00,82.23 678.00,82.23
             671.05,87.47 667.91,91.81 659.00,88.98
             651.96,86.74 650.80,81.35 648.53,75.00
             648.53,75.00 638.01,47.00 638.01,47.00
             634.75,38.59 632.90,31.82 622.00,32.61
             613.87,33.20 608.68,40.37 603.72,46.00
             603.72,46.00 588.83,62.00 588.83,62.00
             585.24,65.97 579.81,72.95 574.00,72.50
             564.90,71.81 561.95,64.89 557.86,58.00
             557.86,58.00 543.33,35.00 543.33,35.00
             537.71,26.57 534.24,20.77 523.00,23.85 Z
           M 519.00,109.46
           C 526.03,108.36 533.49,108.66 540.00,111.74
             565.06,123.59 562.49,160.86 535.00,169.25
             531.39,170.35 528.87,171.20 525.00,170.89
             500.57,168.95 486.42,140.95 501.55,121.00
             506.03,115.10 512.03,111.59 519.00,109.46 Z
           M 255.00,274.00
           C 259.51,263.99 281.68,245.11 290.83,237.47
             325.22,208.79 365.42,185.36 408.00,171.17
             408.00,171.17 446.00,160.64 446.00,160.64
             449.53,159.88 456.58,157.66 460.00,158.69
             464.41,160.01 471.87,169.36 475.17,173.00
             475.17,173.00 493.91,192.00 493.91,192.00
             502.46,201.18 510.25,212.85 524.00,213.63
             536.56,214.33 542.72,206.96 551.00,199.04
             551.00,199.04 580.00,171.91 580.00,171.91
             583.68,168.48 591.42,159.23 596.00,158.40
             599.40,157.79 613.94,161.38 618.00,162.42
             635.12,166.81 648.55,171.02 665.00,177.60
             721.60,200.24 769.37,234.81 809.13,281.00
             818.97,292.43 827.64,304.46 836.00,317.00
             838.51,320.76 845.45,331.09 846.49,335.00
             847.99,340.63 841.18,352.45 838.79,358.00
             838.79,358.00 817.47,406.00 817.47,406.00
             812.94,415.93 807.91,425.99 812.68,437.00
             817.30,447.64 827.17,451.02 837.00,455.21
             837.00,455.21 873.00,471.21 873.00,471.21
             877.32,473.07 891.96,478.67 893.98,482.14
             895.20,484.24 895.00,487.61 895.00,490.00
             895.00,490.00 896.00,510.00 896.00,510.00
             896.00,510.00 895.17,535.00 895.17,535.00
             894.93,537.51 895.33,542.51 893.83,544.43
             892.47,546.15 889.96,545.96 888.00,546.00
             888.00,546.00 864.00,546.00 864.00,546.00
             861.06,546.00 856.84,545.68 854.51,547.74
             852.02,549.94 852.04,553.95 852.00,557.00
             851.89,566.26 852.37,575.86 850.63,585.00
             846.55,606.46 828.75,620.73 807.00,620.89
             807.00,620.89 794.00,620.89 794.00,620.89
             783.97,619.40 771.47,613.58 765.77,605.00
             762.98,600.81 760.14,584.04 758.67,578.00
             755.25,563.95 750.07,550.05 742.00,538.00
             734.26,526.45 729.41,522.04 719.00,513.13
             716.56,511.04 707.08,503.95 706.17,501.73
             705.12,499.17 707.27,497.45 709.06,496.04
             709.06,496.04 724.00,485.27 724.00,485.27
             741.59,472.19 760.68,452.93 770.29,433.00
             774.30,424.68 778.95,409.17 779.00,400.00
             779.00,400.00 779.00,391.00 779.00,391.00
             778.93,385.59 776.98,376.35 775.57,371.00
             763.34,324.56 720.51,293.18 676.00,280.73
             667.38,278.32 649.74,275.01 641.00,275.00
             641.00,275.00 376.00,275.00 376.00,275.00
             376.00,275.00 295.00,275.00 295.00,275.00
             286.35,275.00 261.81,275.94 255.00,274.00 Z
           M 166.00,377.37
           C 199.14,373.13 214.94,414.23 189.00,433.24
             185.57,435.75 181.19,437.82 177.00,438.63
             153.76,443.11 133.95,420.37 141.75,398.00
             145.78,386.42 154.57,380.32 166.00,377.37 Z
           M 875.00,379.19
           C 875.00,379.19 884.00,379.19 884.00,379.19
             903.84,379.27 919.15,401.47 910.20,422.00
             905.76,432.20 895.67,438.67 885.00,440.63
             880.47,441.46 878.22,440.40 874.00,439.32
             858.45,435.33 850.80,423.62 851.00,408.00
             851.19,393.61 861.53,382.85 875.00,379.19 Z
           M 230.32,383.60
           C 230.32,383.60 272.00,383.00 272.00,383.00
             278.74,383.01 280.86,382.51 281.00,390.00
             281.00,390.00 281.00,436.00 281.00,436.00
             281.00,436.00 281.00,610.00 281.00,610.00
             281.00,611.99 281.23,615.81 279.98,617.40
             278.63,619.10 275.95,618.96 274.00,619.00
             274.00,619.00 258.00,619.00 258.00,619.00
             258.00,619.00 183.00,619.00 183.00,619.00
             180.39,618.99 176.60,619.33 174.58,617.40
             173.04,615.92 171.85,611.15 171.33,609.00
             171.33,609.00 166.94,589.00 166.94,589.00
             166.94,589.00 163.30,569.00 163.30,569.00
             163.30,569.00 162.70,560.00 162.70,560.00
             161.69,552.91 161.01,554.61 161.00,546.00
             161.00,546.00 160.05,526.00 160.05,526.00
             160.05,526.00 160.05,507.00 160.05,507.00
             160.05,507.00 161.00,497.00 161.00,497.00
             161.05,492.60 160.42,482.82 162.43,479.26
             164.52,475.57 178.56,470.31 183.00,468.37
             183.00,468.37 216.00,453.79 216.00,453.79
             224.66,450.01 232.71,447.30 238.23,439.00
             247.07,425.73 239.58,413.64 233.93,401.00
             232.52,397.86 227.54,388.37 228.69,385.31
             229.20,383.96 230.08,383.81 230.32,383.60 Z
           M 446.15,386.60
           C 446.15,386.60 490.00,386.00 490.00,386.00
             490.00,386.00 548.00,386.00 548.00,386.00
             565.27,386.00 579.08,384.82 595.00,393.58
             613.33,403.67 623.60,426.04 606.82,442.82
             598.01,451.62 578.24,456.98 566.00,457.00
             566.00,457.00 453.00,457.00 453.00,457.00
             445.78,456.99 443.15,457.15 443.00,449.00
             443.00,449.00 443.00,405.00 443.00,405.00
             443.00,399.39 441.05,390.15 446.15,386.60 Z
           M 537.00,733.00
           C 537.00,733.00 537.00,623.00 537.00,623.00
             537.00,623.00 453.00,623.00 453.00,623.00
             445.78,622.99 443.15,623.15 443.00,615.00
             443.00,615.00 443.00,564.00 443.00,564.00
             443.00,561.55 442.76,557.48 444.17,555.43
             446.74,551.70 461.41,553.00 466.00,553.00
             466.00,553.00 538.00,553.00 538.00,553.00
             543.39,553.01 552.95,554.65 558.00,556.39
             586.19,566.12 595.52,586.93 601.36,614.00
             605.65,633.90 611.39,668.34 618.40,686.00
             626.21,705.65 646.95,732.96 670.00,733.00
             670.00,733.00 814.00,733.00 814.00,733.00
             816.18,733.00 821.50,732.48 822.13,735.31
             822.75,738.12 817.89,743.86 816.20,746.00
             816.20,746.00 798.96,766.00 798.96,766.00
             796.98,768.07 792.45,772.85 790.00,773.94
             786.66,775.42 776.02,771.94 772.00,771.16
             772.00,771.16 732.00,762.81 732.00,762.81
             722.62,761.23 718.30,758.94 709.00,764.17
             694.35,772.42 693.59,790.22 690.63,805.00
             690.63,805.00 685.17,829.00 685.17,829.00
             684.29,833.71 682.05,847.48 679.42,850.74
             677.00,853.73 669.72,856.11 666.00,857.60
             666.00,857.60 633.00,869.13 633.00,869.13
             633.00,869.13 587.00,879.32 587.00,879.32
             587.00,879.32 580.00,880.99 580.00,880.99
             580.00,880.99 573.00,880.99 573.00,880.99
             573.00,880.99 565.00,882.85 565.00,882.85
             565.00,882.85 553.00,882.85 553.00,882.85
             553.00,882.85 540.00,884.00 540.00,884.00
             540.00,884.00 517.00,884.00 517.00,884.00
             517.00,884.00 496.00,883.00 496.00,883.00
             496.00,883.00 469.00,879.32 469.00,879.32
             446.01,875.48 424.04,869.98 402.00,862.17
             402.00,862.17 381.00,853.93 381.00,853.93
             378.00,852.58 373.85,850.81 372.17,847.87
             372.17,847.87 368.41,831.00 368.41,831.00
             368.41,831.00 359.36,790.00 359.36,790.00
             356.97,778.95 356.20,771.04 346.00,764.06
             334.56,756.22 327.09,760.03 315.00,762.64
             315.00,762.64 283.00,769.19 283.00,769.19
             278.49,769.95 267.79,773.75 264.00,771.96
             261.21,770.65 256.42,765.43 254.28,763.00
             254.28,763.00 239.80,746.00 239.80,746.00
             238.11,743.86 233.25,738.12 233.87,735.31
             234.50,732.48 239.82,733.00 242.00,733.00
             242.00,733.00 537.00,733.00 537.00,733.00 Z
           M 301.00,795.37
           C 329.74,791.70 348.70,825.20 328.81,846.96
             325.66,850.41 322.28,852.55 318.00,854.34
             312.62,856.59 309.81,857.14 304.00,856.98
             291.29,856.64 278.83,846.21 275.61,834.00
             274.86,831.17 274.98,827.92 275.00,825.00
             275.09,809.12 286.39,799.02 301.00,795.37 Z
           M 740.00,797.38
           C 749.53,796.14 757.99,796.94 765.99,802.79
             780.20,813.18 781.62,834.83 770.48,847.91
             765.78,853.43 758.02,857.06 751.00,858.49
             746.10,859.48 743.62,858.65 739.00,857.25
             725.07,853.00 716.17,841.67 716.18,827.00
             716.18,812.58 726.47,801.12 740.00,797.38 Z" />
</svg>
